<?xml version="1.0" encoding="UTF-8"?>
<svg id="Ebene_1" data-name="Ebene 1" xmlns="http://www.w3.org/2000/svg" viewBox="0 0 170.08 170.08">
  <defs>
    <style>
      .cls-1 {
        fill: none;
      }

      .cls-1, .cls-2 {
        stroke-width: 0px;
      }

      .cls-2 {
        fill: #fff;
      }
    </style>
  </defs>
  <rect class="cls-1" width="170.08" height="170.08"/>
  <path class="cls-2" d="m80.77,117.07h8.55v-19.1l6.84,7.32,5.98-6.52-17.09-18.3-17.09,18.3,6.09,6.41,6.73-7.21v19.1Zm-21.36,13.73c-2.35,0-4.36-.9-6.04-2.69s-2.51-3.95-2.51-6.46V48.43c0-2.52.84-4.67,2.51-6.46s3.69-2.69,6.04-2.69h34.18l25.64,27.45v54.91c0,2.52-.84,4.67-2.51,6.46s-3.69,2.69-6.04,2.69h-51.28Zm29.91-59.49v-22.88h-29.91v73.21h51.28v-50.33h-21.36Zm-29.91-22.88v22.88-22.88,73.21V48.43Z"/>
</svg>