<?xml version="1.0" encoding="UTF-8"?>
<svg id="Ebene_1" data-name="Ebene 1" xmlns="http://www.w3.org/2000/svg" viewBox="0 0 144.89 144">
  <defs>
    <style>
      .cls-1 {
        fill: none;
      }

      .cls-1, .cls-2, .cls-3, .cls-4 {
        stroke-width: 0px;
      }

      .cls-2 {
        fill: #fff;
      }

      .cls-3 {
        fill: #9a9b9e;
      }

      .cls-4 {
        fill: #767676;
      }
    </style>
  </defs>
  <path class="cls-4" d="m114.78,71.95c0-.6-.02-1.2-.04-1.8v-33.99l-9.4,9.4c-7.69-9.41-19.39-15.43-32.5-15.43s-25.75,6.51-33.41,16.59l15.4,15.56c1.51-2.79,3.65-5.19,6.24-7,2.69-2.1,6.5-3.81,11.77-3.81.64,0,1.13.07,1.49.21,6.53.52,12.19,4.12,15.52,9.35l-10.9,10.9c13.81-.05,29.41-.09,35.82,0"/>
  <path class="cls-3" d="m72.6,30.13c-.6,0-1.2.02-1.8.04h-33.99l9.4,9.4c-9.41,7.69-15.43,19.39-15.43,32.5s6.51,25.75,16.59,33.41l15.56-15.4c-2.79-1.51-5.19-3.65-7-6.24-2.1-2.69-3.81-6.5-3.81-11.77,0-.64.07-1.13.21-1.49.52-6.53,4.12-12.19,9.35-15.52l10.9,10.9c-.05-13.81-.09-29.41,0-35.83"/>
  <path class="cls-2" d="m30.78,72.07c0,.6.02,1.2.04,1.8v33.99l9.4-9.4c7.69,9.41,19.39,15.43,32.5,15.43s25.75-6.51,33.41-16.59l-15.4-15.57c-1.51,2.79-3.65,5.19-6.24,7-2.69,2.1-6.5,3.81-11.77,3.81-.64,0-1.13-.07-1.49-.21-6.53-.52-12.19-4.12-15.52-9.35l10.9-10.9c-13.81.05-29.41.09-35.83,0"/>
  <rect class="cls-1" width="144.89" height="144"/>
</svg>