<?xml version="1.0" encoding="UTF-8"?>
<svg id="Ebene_1" data-name="Ebene 1" xmlns="http://www.w3.org/2000/svg" viewBox="0 0 170.08 170.08">
  <defs>
    <style>
      .cls-1 {
        fill: none;
      }

      .cls-1, .cls-2 {
        stroke-width: 0px;
      }

      .cls-2 {
        fill: #fff;
      }
    </style>
  </defs>
  <rect class="cls-1" width="170.08" height="170.08"/>
  <path class="cls-2" d="m84.74,54.57c-13.56,0-26.3.89-33.08,2.13-4.52.89-8.43,3.55-9.24,7.62-.82,4.25-1.65,10.64-1.65,18.61s.82,14.18,1.85,18.61c.83,3.9,4.73,6.74,9.24,7.62,7.2,1.24,19.52,2.13,33.08,2.13s25.88-.89,33.07-2.13c4.53-.89,8.43-3.55,9.24-7.62.83-4.43,1.85-10.81,2.05-18.79,0-7.98-1.03-14.36-2.05-18.79-.82-3.9-4.72-6.74-9.24-7.62-7.19-.89-19.72-1.77-33.27-1.77Zm0,3.55c14.79,0,26.7,1.06,32.45,1.95,3.08.71,5.55,2.49,5.95,4.79,1.24,5.67,2.05,11.7,2.05,17.91-.2,7.62-1.23,13.82-2.05,18.25-.61,3.37-4.72,4.43-5.95,4.79-7.4,1.24-19.72,2.12-32.05,2.12s-24.85-.71-32.04-2.12c-3.08-.71-5.55-2.49-5.95-4.79-1.65-4.96-2.26-11.52-2.26-18.08,0-8.16.83-14.18,1.65-17.9.62-3.37,4.93-4.44,5.95-4.79,6.78-1.24,19.32-2.13,32.26-2.13Zm-11.1,10.64v28.36l28.76-14.18-28.76-14.18Zm4.11,6.03l16.43,8.15-16.43,8.15v-16.3Z"/>
</svg>