<?xml version="1.0" encoding="utf-8"?>
<!-- Generator: Adobe Illustrator 28.0.0, SVG Export Plug-In . SVG Version: 6.00 Build 0)  -->
<svg version="1.1" id="Ebene_1" xmlns="http://www.w3.org/2000/svg" xmlns:xlink="http://www.w3.org/1999/xlink" x="0px" y="0px"
	 viewBox="0 0 1051 544" style="enable-background:new 0 0 1051 544;" xml:space="preserve">
<style type="text/css">
	.st0{fill:#FFFFFF;}
	.st1{fill:none;stroke:#57595D;stroke-width:10;stroke-miterlimit:10;}
</style>
<g>
	<path class="st0" d="M177,543.5c-46.9,0-91.2-18.4-124.6-51.8S0.5,414,0.5,367V177c0-46.9,18.4-91.2,51.8-124.6S130,0.5,177,0.5
		h697c46.9,0,91.2,18.4,124.6,51.8s51.8,77.7,51.8,124.6v190c0,46.9-18.4,91.2-51.8,124.6S921,543.5,874,543.5H177z"/>
	<path class="st0" d="M874,1c23.7,0,46.6,4.7,68.3,13.9c20.9,8.9,39.8,21.6,56,37.8c16.2,16.2,28.9,35,37.8,56
		c9.2,21.7,13.9,44.7,13.9,68.3v190c0,23.6-4.7,46.6-13.9,68.3c-8.9,20.9-21.6,39.8-37.8,56c-16.2,16.2-35,28.9-56,37.8
		c-21.7,9.2-44.7,13.9-68.3,13.9H177c-23.6,0-46.6-4.7-68.3-13.9c-20.9-8.9-39.8-21.6-56-37.8c-16.2-16.2-28.9-35-37.8-56
		C5.7,413.7,1,390.7,1,367V177c0-23.6,4.7-46.6,13.9-68.3c8.9-20.9,21.6-39.8,37.8-56c16.2-16.2,35-28.9,56-37.8
		C130.3,5.7,153.3,1,177,1H874 M874,0H177C79.6,0,0,79.6,0,177v190c0,97.3,79.6,177,177,177h697c97.3,0,177-79.6,177-177V177
		C1051,79.6,971.4,0,874,0L874,0L874,0z"/>
</g>
<line class="st1" x1="522.2" y1="345.9" x2="657.9" y2="210.2"/>
<line class="st1" x1="455.9" y1="272.4" x2="529.2" y2="345.7"/>
</svg>
