<?xml version="1.0" encoding="UTF-8"?>
<svg id="Ebene_1" data-name="Ebene 1" xmlns="http://www.w3.org/2000/svg" version="1.1" viewBox="0 0 1051 544">
  <defs>
    <style>
      .cls-1 {
        fill: #57595d;
        font-family: MyriadPro-Regular, 'Myriad Pro';
        font-size: 180px;
      }

      .cls-2 {
        fill: none;
        stroke: #57595d;
        stroke-miterlimit: 10;
        stroke-width: 10px;
      }

      .cls-3 {
        fill: #fff;
        stroke-width: 0px;
      }
    </style>
  </defs>
  <g>
    <path class="cls-3" d="M177,543.5c-46.9,0-91.2-18.4-124.6-51.8S.5,414,.5,367v-190c0-46.9,18.4-91.2,51.8-124.6C85.7,19,130,.5,177,.5h697c46.9,0,91.2,18.4,124.6,51.8,33.4,33.4,51.8,77.7,51.8,124.6v190c0,46.9-18.4,91.2-51.8,124.6s-77.6,52-124.6,52H177Z"/>
    <path class="cls-3" d="M874,1c23.7,0,46.6,4.7,68.3,13.9,20.9,8.9,39.8,21.6,56,37.8s28.9,35,37.8,56c9.2,21.7,13.9,44.7,13.9,68.3v190c0,23.6-4.7,46.6-13.9,68.3-8.9,20.9-21.6,39.8-37.8,56s-35,28.9-56,37.8c-21.7,9.2-44.7,13.9-68.3,13.9H177c-23.6,0-46.6-4.7-68.3-13.9-20.9-8.9-39.8-21.6-56-37.8-16.2-16.2-28.9-35-37.8-56-9.2-21.6-13.9-44.6-13.9-68.3v-190c0-23.6,4.7-46.6,13.9-68.3,8.9-20.9,21.6-39.8,37.8-56,16.2-16.2,35-28.9,56-37.8C130.3,5.7,153.3,1,177,1h697M874,0H177C79.6,0,0,79.6,0,177v190c0,97.3,79.6,177,177,177h697c97.3,0,177-79.6,177-177v-190c0-97.4-79.6-177-177-177h0Z"/>
  </g>
  <line class="cls-2" x1="824" y1="313.8" x2="900.3" y2="215.6"/>
  <line class="cls-2" x1="752.6" y1="215.7" x2="828" y2="313.7"/>
  <line class="cls-2" x1="750.2" y1="215.7" x2="902" y2="215.7"/>
  <text class="cls-1" transform="translate(159.5 313.8)"><tspan x="0" y="0">Button</tspan></text>
</svg>