<?xml version="1.0" encoding="UTF-8"?>
<svg id="Ebene_1" data-name="Ebene 1" xmlns="http://www.w3.org/2000/svg" viewBox="0 0 1051 544">
  <defs>
    <style>
      .cls-1 {
        fill: #fff;
        stroke-width: 0px;
      }

      .cls-2 {
        fill: none;
        stroke: #57595d;
        stroke-miterlimit: 10;
        stroke-width: 10px;
      }
    </style>
  </defs>
  <g>
    <path class="cls-1" d="m176.98,543.5c-46.94,0-91.21-18.41-124.64-51.84C18.91,458.23.5,413.96.5,367.02v-190.04c0-46.94,18.41-91.21,51.84-124.64C85.77,18.91,130.03.5,176.98.5h697.04c46.94,0,91.21,18.41,124.64,51.84,33.43,33.43,51.84,77.69,51.84,124.64v190.04c0,46.94-18.41,91.21-51.84,124.64s-77.69,51.84-124.64,51.84H176.98Z"/>
    <path class="cls-1" d="m874.02,1c23.65,0,46.64,4.67,68.33,13.89,20.94,8.89,39.76,21.62,55.96,37.81,16.19,16.19,28.91,35.02,37.81,55.96,9.21,21.69,13.89,44.68,13.89,68.33v190.04c0,23.65-4.67,46.64-13.89,68.33-8.89,20.94-21.62,39.76-37.81,55.96-16.19,16.19-35.02,28.91-55.96,37.81-21.69,9.21-44.68,13.89-68.33,13.89H176.98c-23.65,0-46.64-4.67-68.33-13.89-20.94-8.89-39.76-21.62-55.96-37.81-16.19-16.19-28.91-35.02-37.81-55.96-9.21-21.69-13.89-44.68-13.89-68.33v-190.04c0-23.65,4.67-46.64,13.89-68.33,8.89-20.94,21.62-39.76,37.81-55.96,16.19-16.19,35.02-28.91,55.96-37.81C130.34,5.67,153.33,1,176.98,1h697.04m0-1H176.98C79.64,0,0,79.64,0,176.98v190.04c0,97.34,79.64,176.98,176.98,176.98h697.04c97.34,0,176.98-79.64,176.98-176.98v-190.04C1051,79.64,971.36,0,874.02,0h0Z"/>
  </g>
  <line class="cls-2" x1="522.16" y1="345.93" x2="657.87" y2="210.21"/>
  <line class="cls-2" x1="455.93" y1="272.45" x2="529.16" y2="345.68"/>
</svg>